<svg id="Layer_1" data-name="Layer 1" xmlns="http://www.w3.org/2000/svg" viewBox="0 0 100 20"><path d="M0,19.71V.26H4.3V16.8H8.76v2.91Z"/><path d="M10.63,19.71V.26h8.74V3.19H14.93V8h3.38v3H14.93V16.8h4.49v2.91Z"/><path d="M23.12,19.71V3.46H20.19V.26H30.34v3.2h-2.9V19.71Z"/><path d="M31.2,7.49V.26h3.2L33.1,7.49Z"/><path d="M41.29,20a6.47,6.47,0,0,1-3-.65,4.13,4.13,0,0,1-1.85-2,9.12,9.12,0,0,1-.7-3.51l3.68-.56a8.79,8.79,0,0,0,.22,2,2.23,2.23,0,0,0,.58,1.1,1.28,1.28,0,0,0,.9.34.86.86,0,0,0,.88-.46,2.39,2.39,0,0,0,.2-1,3.39,3.39,0,0,0-.58-2A8.51,8.51,0,0,0,40,11.62l-1.68-1.47A9.61,9.61,0,0,1,36.47,8a5.4,5.4,0,0,1-.75-2.94,4.82,4.82,0,0,1,1.46-3.78,5.8,5.8,0,0,1,4-1.31,5.2,5.2,0,0,1,2.51.53,3.69,3.69,0,0,1,1.44,1.38,5.94,5.94,0,0,1,.67,1.8A10.66,10.66,0,0,1,46,5.52L42.29,6a14.82,14.82,0,0,0-.1-1.5,2.16,2.16,0,0,0-.35-1A1,1,0,0,0,41,3.14a.91.91,0,0,0-.87.51,2,2,0,0,0-.28,1,2.79,2.79,0,0,0,.52,1.76,9.71,9.71,0,0,0,1.35,1.43l1.61,1.42a11.05,11.05,0,0,1,2.15,2.44,6.21,6.21,0,0,1,.88,3.39,4.94,4.94,0,0,1-.63,2.48A4.47,4.47,0,0,1,44,19.35,5.4,5.4,0,0,1,41.29,20Z"/><path d="M56.36,19.71V3.46H53.43V.26H63.59v3.2H60.68V19.71Z"/><path d="M63.27,19.71,67,.26h4.89l3.63,19.45h-4l-.65-4.11H68l-.67,4.11ZM68.39,13h2.06l-1-7.58Z"/><path d="M77.44,19.71V.26h4.29V16.8H86.2v2.91Z"/><path d="M88.07,19.71V.26h4.3v8l3.26-8h4.2l-3.6,8.79L100,19.71H95.63l-2.81-8.6-.45.77v7.83Z"/></svg>